<svg width="50" height="43" viewBox="0 0 50 43" fill="none" xmlns="http://www.w3.org/2000/svg">
<path d="M46.1538 0H3.84615C2.82609 0 1.84781 0.405218 1.12651 1.12651C0.405218 1.84781 0 2.82609 0 3.84615V38.4615C0 39.4816 0.405218 40.4599 1.12651 41.1812C1.84781 41.9025 2.82609 42.3077 3.84615 42.3077H7.0649C7.42886 42.3078 7.78538 42.2046 8.09303 42.0102C8.40069 41.8157 8.64684 41.5379 8.80288 41.2091C9.73803 39.2348 11.2144 37.5665 13.0604 36.3983C14.9064 35.23 17.0462 34.6098 19.2308 34.6098C21.4154 34.6098 23.5551 35.23 25.4011 36.3983C27.2471 37.5665 28.7235 39.2348 29.6587 41.2091C29.8147 41.5379 30.0609 41.8157 30.3685 42.0102C30.6762 42.2046 31.0327 42.3078 31.3966 42.3077H46.1538C47.1739 42.3077 48.1522 41.9025 48.8735 41.1812C49.5948 40.4599 50 39.4816 50 38.4615V3.84615C50 2.82609 49.5948 1.84781 48.8735 1.12651C48.1522 0.405218 47.1739 0 46.1538 0ZM19.2308 30.7692C17.7094 30.7692 16.2221 30.3181 14.9572 29.4728C13.6922 28.6276 12.7062 27.4262 12.124 26.0206C11.5418 24.6151 11.3895 23.0684 11.6863 21.5762C11.9831 20.0841 12.7157 18.7134 13.7915 17.6376C14.8673 16.5619 16.2379 15.8292 17.7301 15.5324C19.2222 15.2356 20.7689 15.3879 22.1745 15.9702C23.5801 16.5524 24.7814 17.5383 25.6267 18.8033C26.4719 20.0683 26.9231 21.5555 26.9231 23.0769C26.9231 25.1171 26.1126 27.0736 24.6701 28.5162C23.2275 29.9588 21.2709 30.7692 19.2308 30.7692ZM46.1538 38.4615H32.5553C31.7167 37.0162 30.6482 35.7171 29.3918 34.6154H40.3846C40.8946 34.6154 41.3838 34.4128 41.7444 34.0521C42.1051 33.6915 42.3077 33.2023 42.3077 32.6923V9.61539C42.3077 9.10535 42.1051 8.61621 41.7444 8.25556C41.3838 7.89492 40.8946 7.69231 40.3846 7.69231H9.61538C9.10535 7.69231 8.61621 7.89492 8.25556 8.25556C7.89492 8.61621 7.69231 9.10535 7.69231 9.61539V32.6923C7.69209 33.1188 7.83367 33.5333 8.09476 33.8705C8.35586 34.2078 8.72165 34.4487 9.13461 34.5553C7.84901 35.669 6.75795 36.9892 5.90625 38.4615H3.84615V3.84615H46.1538V38.4615Z" fill="#075985"/>
</svg>
