<svg width="26" height="26" viewBox="0 0 26 26" fill="none" xmlns="http://www.w3.org/2000/svg">
<path d="M13.3125 0.8125C10.8402 0.8125 8.42349 1.54561 6.36788 2.91913C4.31226 4.29265 2.71011 6.24488 1.76401 8.52895C0.817916 10.813 0.570374 13.3264 1.05269 15.7511C1.535 18.1759 2.72551 20.4032 4.47367 22.1513C6.22183 23.8995 8.44911 25.09 10.8739 25.5723C13.2986 26.0546 15.812 25.8071 18.096 24.861C20.3801 23.9149 22.3324 22.3127 23.7059 20.2571C25.0794 18.2015 25.8125 15.7848 25.8125 13.3125C25.809 9.99837 24.4909 6.82098 22.1475 4.47753C19.804 2.13408 16.6266 0.816 13.3125 0.8125ZM13.3125 23.8894C11.2206 23.8894 9.17565 23.2691 7.43628 22.1069C5.69691 20.9447 4.34124 19.2928 3.5407 17.3601C2.74016 15.4274 2.5307 13.3008 2.93881 11.249C3.34693 9.19732 4.35428 7.31269 5.83349 5.83349C7.3127 4.35428 9.19733 3.34692 11.249 2.93881C13.3008 2.5307 15.4274 2.74015 17.3601 3.5407C19.2928 4.34124 20.9447 5.69691 22.1069 7.43627C23.2691 9.17564 23.8894 11.2206 23.8894 13.3125C23.8862 16.1167 22.7709 18.8051 20.788 20.788C18.8051 22.7709 16.1167 23.8862 13.3125 23.8894ZM21.0048 13.3125C21.0048 13.5675 20.9035 13.8121 20.7232 13.9924C20.5429 14.1727 20.2983 14.274 20.0433 14.274H13.3125C13.0575 14.274 12.8129 14.1727 12.6326 13.9924C12.4523 13.8121 12.351 13.5675 12.351 13.3125V6.58173C12.351 6.32671 12.4523 6.08214 12.6326 5.90182C12.8129 5.7215 13.0575 5.62019 13.3125 5.62019C13.5675 5.62019 13.8121 5.7215 13.9924 5.90182C14.1727 6.08214 14.274 6.32671 14.274 6.58173V12.351H20.0433C20.2983 12.351 20.5429 12.4523 20.7232 12.6326C20.9035 12.8129 21.0048 13.0575 21.0048 13.3125Z" fill="#404040"/>
</svg>
