<svg width="26" height="21" viewBox="0 0 26 21" fill="none" xmlns="http://www.w3.org/2000/svg">
<path d="M24.7532 12.2427C24.6682 12.3142 24.5716 12.3662 24.4687 12.3958C24.3658 12.4254 24.2587 12.4319 24.1536 12.4151C24.0484 12.3982 23.9473 12.3583 23.8559 12.2976C23.7645 12.2368 23.6846 12.1565 23.6209 12.0611C23.1334 11.3258 22.4989 10.7292 21.7684 10.3193C21.0379 9.90943 20.2319 9.69775 19.4152 9.7013C19.2561 9.70129 19.1006 9.64865 18.9681 9.54997C18.8355 9.45129 18.7319 9.31096 18.67 9.14651C18.6281 9.03485 18.6064 8.91487 18.6064 8.79367C18.6064 8.67247 18.6281 8.5525 18.67 8.44083C18.7319 8.27639 18.8355 8.13605 18.9681 8.03737C19.1006 7.9387 19.2561 7.88606 19.4152 7.88604C19.869 7.886 20.3137 7.74314 20.6987 7.47368C21.0838 7.20423 21.3939 6.81899 21.5936 6.36172C21.7934 5.90445 21.8749 5.39348 21.8288 4.88685C21.7828 4.38021 21.611 3.89823 21.3331 3.49563C21.0552 3.09304 20.6822 2.78598 20.2566 2.60932C19.831 2.43267 19.3697 2.39351 18.9253 2.49629C18.4808 2.59906 18.0709 2.83966 17.7422 3.19074C17.4135 3.54183 17.179 3.98934 17.0656 4.48243C17.039 4.59789 16.9925 4.70636 16.9286 4.80164C16.8647 4.89691 16.7847 4.97713 16.6931 5.0377C16.6016 5.09828 16.5003 5.13803 16.3951 5.15469C16.2899 5.17135 16.1828 5.16458 16.0799 5.13479C15.977 5.10499 15.8803 5.05274 15.7954 4.98102C15.7105 4.90931 15.639 4.81953 15.5851 4.71681C15.5311 4.61409 15.4957 4.50045 15.4808 4.38236C15.466 4.26428 15.472 4.14408 15.4985 4.02861C15.656 3.34484 15.9535 2.71175 16.3674 2.17971C16.7813 1.64768 17.3001 1.23138 17.8825 0.963941C18.465 0.696505 19.095 0.585313 19.7225 0.639214C20.35 0.693114 20.9577 0.910618 21.4971 1.27442C22.0365 1.63822 22.4928 2.13828 22.8297 2.73481C23.1666 3.33133 23.3747 4.00786 23.4376 4.71056C23.5005 5.41326 23.4164 6.12273 23.192 6.78253C22.9676 7.44233 22.609 8.03425 22.1448 8.51117C23.2446 9.04554 24.2007 9.89351 24.918 10.9709C24.9817 11.0664 25.028 11.1752 25.0542 11.2909C25.0804 11.4066 25.0861 11.527 25.0707 11.6451C25.0554 11.7633 25.0195 11.8769 24.965 11.9794C24.9105 12.0819 24.8386 12.1714 24.7532 12.2427ZM19.306 19.2314C19.3645 19.3347 19.4038 19.4502 19.4215 19.571C19.4392 19.6918 19.4349 19.8154 19.409 19.9343C19.383 20.0532 19.3359 20.165 19.2705 20.2629C19.205 20.3608 19.1226 20.4429 19.0282 20.5041C18.9337 20.5654 18.8292 20.6046 18.7209 20.6194C18.6126 20.6341 18.5028 20.6241 18.3981 20.59C18.2933 20.5559 18.1958 20.4984 18.1113 20.4209C18.0269 20.3434 17.9573 20.2475 17.9067 20.1391C17.3972 19.1709 16.6716 18.3686 15.8015 17.8112C14.9313 17.2538 13.9467 16.9607 12.9448 16.9607C11.9428 16.9607 10.9582 17.2538 10.0881 17.8112C9.21792 18.3686 8.49229 19.1709 7.9828 20.1391C7.93224 20.2475 7.86265 20.3434 7.77821 20.4209C7.69378 20.4984 7.59625 20.5559 7.49148 20.59C7.38672 20.6241 7.27689 20.6341 7.16861 20.6194C7.06032 20.6046 6.95582 20.5654 6.86138 20.5041C6.76694 20.4429 6.68452 20.3608 6.61907 20.2629C6.55363 20.165 6.50651 20.0532 6.48056 19.9343C6.45461 19.8154 6.45036 19.6918 6.46806 19.571C6.48576 19.4502 6.52506 19.3347 6.58358 19.2314C7.36771 17.7195 8.56331 16.5297 9.99468 15.8369C9.18925 15.1449 8.59731 14.187 8.30207 13.0979C8.00683 12.0088 8.02314 10.8433 8.34869 9.76518C8.67425 8.68705 9.29269 7.7505 10.1171 7.08719C10.9415 6.42387 11.9304 6.06714 12.9448 6.06714C13.9592 6.06714 14.9481 6.42387 15.7725 7.08719C16.5969 7.7505 17.2153 8.68705 17.5408 9.76518C17.8664 10.8433 17.8827 12.0088 17.5875 13.0979C17.2922 14.187 16.7003 15.1449 15.8949 15.8369C17.3262 16.5297 18.5218 17.7195 19.306 19.2314ZM12.9448 15.1471C13.5846 15.1471 14.2101 14.9342 14.7421 14.5352C15.2742 14.1363 15.6888 13.5693 15.9337 12.9059C16.1786 12.2425 16.2426 11.5125 16.1178 10.8083C15.993 10.104 15.6848 9.45714 15.2324 8.9494C14.7799 8.44166 14.2035 8.09589 13.5759 7.9558C12.9484 7.81572 12.2979 7.88761 11.7067 8.1624C11.1156 8.43718 10.6103 8.90252 10.2548 9.49955C9.89932 10.0966 9.70958 10.7985 9.70958 11.5166C9.70958 12.4794 10.0504 13.4029 10.6571 14.0837C11.2639 14.7646 12.0867 15.1471 12.9448 15.1471ZM7.28319 8.79367C7.28319 8.55295 7.19798 8.32209 7.0463 8.15188C6.89462 7.98167 6.6889 7.88604 6.47439 7.88604C6.02058 7.886 5.57588 7.74314 5.1908 7.47368C4.80571 7.20423 4.49568 6.81899 4.29593 6.36172C4.09617 5.90445 4.01468 5.39348 4.06073 4.88685C4.10678 4.38021 4.27852 3.89823 4.55644 3.49563C4.83435 3.09304 5.20731 2.78598 5.63294 2.60932C6.05857 2.43267 6.51981 2.39351 6.96429 2.49629C7.40876 2.59906 7.81863 2.83966 8.14736 3.19074C8.47609 3.54183 8.7105 3.98934 8.82395 4.48243C8.87757 4.71562 9.01155 4.91536 9.19641 5.0377C9.38127 5.16004 9.60187 5.19497 9.80967 5.13479C10.0175 5.07461 10.1955 4.92426 10.3045 4.71681C10.4135 4.50936 10.4446 4.26181 10.391 4.02861C10.2335 3.34484 9.93602 2.71175 9.52215 2.17971C9.10829 1.64768 8.58948 1.23138 8.00701 0.963941C7.42455 0.696505 6.7945 0.585313 6.167 0.639214C5.53951 0.693114 4.93188 0.910618 4.39247 1.27442C3.85306 1.63822 3.39676 2.13828 3.05987 2.73481C2.72298 3.33133 2.5148 4.00786 2.4519 4.71056C2.389 5.41326 2.47312 6.12273 2.69755 6.78253C2.92199 7.44233 3.28054 8.03425 3.7447 8.51117C2.64603 9.04604 1.69107 9.89398 0.974566 10.9709C0.845728 11.1634 0.790337 11.4055 0.820578 11.644C0.850819 11.8824 0.964215 12.0975 1.13582 12.2421C1.30743 12.3867 1.52318 12.4488 1.73563 12.4149C1.94807 12.381 2.1398 12.2537 2.26864 12.0611C2.75613 11.3258 3.39066 10.7292 4.12115 10.3193C4.85164 9.90943 5.65768 9.69775 6.47439 9.7013C6.6889 9.7013 6.89462 9.60568 7.0463 9.43546C7.19798 9.26525 7.28319 9.03439 7.28319 8.79367Z" fill="#404040"/>
</svg>
