<svg width="39" height="40" viewBox="0 0 39 40" fill="none" xmlns="http://www.w3.org/2000/svg">
<path fill-rule="evenodd" clip-rule="evenodd" d="M19.0735 0C14.0542 0 9.48158 1.65792 6.7758 3.01247C6.53134 3.13471 6.30317 3.25397 6.0913 3.37028C5.67127 3.59919 5.31346 3.81254 5.02899 4.00033L8.10703 8.53182L9.55604 9.10854C15.2187 11.9654 22.8127 11.9654 28.4765 9.10854L30.1211 8.25513L33.0313 4.00033C32.4278 3.6082 31.8011 3.25307 31.1545 2.93691C28.4621 1.5968 23.9984 0 19.0746 0M11.9162 5.12932C10.8265 4.92424 9.75006 4.65411 8.69263 4.32036C11.2273 3.19471 15.0043 2.00017 19.0746 2.00017C21.8937 2.00017 24.5595 2.57355 26.7641 3.30028C24.1806 3.66364 21.4237 4.28036 18.7968 5.03931C16.73 5.63714 14.3142 5.57269 11.9162 5.12932ZM29.651 10.7565L29.3777 10.8942C23.1483 14.0367 14.8854 14.0367 8.65596 10.8942L8.39705 10.7631C-0.962619 21.0318 -8.10766 40 19.0735 40C46.2546 40 38.9363 20.6795 29.651 10.7565ZM17.919 20.0017C17.3295 20.0017 16.7643 20.2358 16.3475 20.6526C15.9307 21.0694 15.6965 21.6347 15.6965 22.2241C15.6965 22.8135 15.9307 23.3788 16.3475 23.7956C16.7643 24.2123 17.3295 24.4465 17.919 24.4465V20.0017ZM20.1414 17.7793V16.6681H17.919V17.7793C16.7401 17.7793 15.6096 18.2476 14.776 19.0811C13.9424 19.9147 13.4741 21.0452 13.4741 22.2241C13.4741 23.4029 13.9424 24.5335 14.776 25.367C15.6096 26.2006 16.7401 26.6689 17.919 26.6689V31.1137C16.9522 31.1137 16.1288 30.497 15.8221 29.6325C15.7766 29.491 15.7032 29.3602 15.6062 29.2476C15.5093 29.135 15.3907 29.043 15.2576 28.9771C15.1244 28.9111 14.9794 28.8725 14.8311 28.8636C14.6828 28.8546 14.5342 28.8755 14.3941 28.925C14.254 28.9745 14.1253 29.0516 14.0155 29.1518C13.9057 29.2519 13.8171 29.373 13.755 29.5079C13.6928 29.6429 13.6584 29.7889 13.6537 29.9375C13.6489 30.086 13.674 30.2339 13.7275 30.3725C14.0339 31.2393 14.6015 31.9898 15.3522 32.5206C16.1028 33.0513 16.9996 33.3363 17.919 33.3361V34.4473H20.1414V33.3361C21.3202 33.3361 22.4508 32.8678 23.2843 32.0343C24.1179 31.2007 24.5862 30.0701 24.5862 28.8913C24.5862 27.7125 24.1179 26.5819 23.2843 25.7483C22.4508 24.9148 21.3202 24.4465 20.1414 24.4465V20.0017C21.1081 20.0017 21.9315 20.6184 22.2382 21.4829C22.2837 21.6243 22.3571 21.7552 22.4541 21.8678C22.551 21.9804 22.6696 22.0724 22.8027 22.1383C22.9359 22.2043 23.0809 22.2429 23.2292 22.2518C23.3775 22.2607 23.5261 22.2398 23.6662 22.1903C23.8063 22.1408 23.935 22.0637 24.0448 21.9636C24.1546 21.8635 24.2432 21.7424 24.3053 21.6074C24.3675 21.4725 24.4019 21.3264 24.4067 21.1779C24.4114 21.0294 24.3863 20.8815 24.3328 20.7428C24.0264 19.876 23.4588 19.1256 22.7082 18.5948C21.9575 18.064 21.0607 17.7791 20.1414 17.7793ZM20.1414 26.6689V31.1137C20.7308 31.1137 21.2961 30.8796 21.7128 30.4628C22.1296 30.046 22.3638 29.4807 22.3638 28.8913C22.3638 28.3019 22.1296 27.7366 21.7128 27.3198C21.2961 26.903 20.7308 26.6689 20.1414 26.6689Z" fill="#075985"/>
</svg>
