<svg width="35" height="35" viewBox="0 0 35 35" fill="none" xmlns="http://www.w3.org/2000/svg">
<g clip-path="url(#clip0_866_7681)">
<path fill-rule="evenodd" clip-rule="evenodd" d="M29.1667 0C30.7138 0 32.1975 0.614582 33.2915 1.70854C34.3854 2.80251 35 4.28624 35 5.83333V29.1667C35 30.7138 34.3854 32.1975 33.2915 33.2915C32.1975 34.3854 30.7138 35 29.1667 35H5.83333C4.28624 35 2.80251 34.3854 1.70854 33.2915C0.614582 32.1975 0 30.7138 0 29.1667V5.83333C0 4.28624 0.614582 2.80251 1.70854 1.70854C2.80251 0.614582 4.28624 0 5.83333 0H29.1667ZM9.72222 13.6111C9.20652 13.6111 8.71195 13.816 8.34729 14.1806C7.98264 14.5453 7.77778 15.0399 7.77778 15.5556V25.2778C7.77778 25.7935 7.98264 26.2881 8.34729 26.6527C8.71195 27.0174 9.20652 27.2222 9.72222 27.2222C10.2379 27.2222 10.7325 27.0174 11.0972 26.6527C11.4618 26.2881 11.6667 25.7935 11.6667 25.2778V15.5556C11.6667 15.0399 11.4618 14.5453 11.0972 14.1806C10.7325 13.816 10.2379 13.6111 9.72222 13.6111ZM15.5556 11.6667C15.0399 11.6667 14.5453 11.8715 14.1806 12.2362C13.816 12.6008 13.6111 13.0954 13.6111 13.6111V25.2778C13.6111 25.7935 13.816 26.2881 14.1806 26.6527C14.5453 27.0174 15.0399 27.2222 15.5556 27.2222C16.0713 27.2222 16.5658 27.0174 16.9305 26.6527C17.2951 26.2881 17.5 25.7935 17.5 25.2778V18.1611C18.0931 17.4922 19.0944 16.7067 20.2086 16.2303C20.8561 15.9542 21.8303 15.8414 22.5069 16.0553C22.7314 16.1122 22.9313 16.2405 23.0767 16.4208C23.1778 16.5569 23.3333 16.8603 23.3333 17.5V25.2778C23.3333 25.7935 23.5382 26.2881 23.9028 26.6527C24.2675 27.0174 24.7621 27.2222 25.2778 27.2222C25.7935 27.2222 26.2881 27.0174 26.6527 26.6527C27.0174 26.2881 27.2222 25.7935 27.2222 25.2778V17.5C27.2222 16.1972 26.8917 15.0383 26.2033 14.1089C25.5699 13.2661 24.6835 12.6481 23.6736 12.3453C21.9197 11.795 19.9772 12.1003 18.6803 12.6564C18.2651 12.835 17.8606 13.0375 17.4689 13.2631C17.3874 12.815 17.1512 12.4098 16.8015 12.1181C16.4519 11.8264 16.0109 11.6666 15.5556 11.6667ZM9.72222 8.55556C9.20652 8.55556 8.71195 8.76042 8.34729 9.12507C7.98264 9.48972 7.77778 9.9843 7.77778 10.5C7.77778 11.0157 7.98264 11.5103 8.34729 11.8749C8.71195 12.2396 9.20652 12.4444 9.72222 12.4444C10.2379 12.4444 10.7325 12.2396 11.0972 11.8749C11.4618 11.5103 11.6667 11.0157 11.6667 10.5C11.6667 9.9843 11.4618 9.48972 11.0972 9.12507C10.7325 8.76042 10.2379 8.55556 9.72222 8.55556Z" fill="#F5F5F5"/>
</g>
<defs>
<clipPath id="clip0_866_7681">
<rect width="35" height="35" rx="5" fill="white"/>
</clipPath>
</defs>
</svg>
